<svg width="240" height="181" viewBox="0 0 240 181" fill="none" xmlns="http://www.w3.org/2000/svg">
<path d="M237.999 68.3507C238 74.9952 237.445 81.6281 236.34 88.1799C233.978 102.189 229.082 115.649 221.891 127.902C220.232 130.736 218.433 133.521 216.554 136.187C211.134 143.882 204.817 150.905 197.739 157.108C194.661 159.812 191.447 162.358 188.111 164.736C183.45 168.039 178.557 171.002 173.47 173.601C172.792 173.948 172.022 174.071 171.269 173.953C170.517 173.835 169.822 173.481 169.283 172.943L148.408 152.044C147.985 151.621 147.674 151.098 147.504 150.524C147.334 149.95 147.31 149.342 147.435 148.756C147.559 148.17 147.829 147.625 148.218 147.169C148.607 146.714 149.104 146.364 149.663 146.149C158.118 142.885 165.99 138.277 172.975 132.503C180.705 126.108 187.23 118.385 192.244 109.695C195.852 103.422 198.628 96.7041 200.5 89.7128C200.643 89.1801 200.661 88.6217 200.554 88.0809C200.446 87.54 200.216 87.0311 199.88 86.5936C199.544 86.1561 199.112 85.8017 198.618 85.5579C198.123 85.314 197.579 85.1873 197.027 85.1874H153.021C152.31 85.1879 151.614 84.9773 151.023 84.5822C150.431 84.1871 149.97 83.6253 149.698 82.968C149.426 82.3107 149.355 81.5874 149.494 80.8897C149.633 80.1921 149.976 79.5514 150.48 79.0488L177.588 51.9405C177.922 51.6066 178.318 51.3418 178.754 51.1612C179.19 50.9805 179.658 50.8876 180.13 50.8878H233.569C234.449 50.8864 235.299 51.2082 235.958 51.7922C236.616 52.3762 237.038 53.1817 237.142 54.0558C237.713 58.7993 237.999 63.5729 237.999 68.3507Z" fill="#915EFF"/>
<path d="M119.563 144.524H119.394C110.232 144.504 102.85 136.989 102.85 127.829V75.2253L62.5972 34.9722C60.2789 32.6584 58.9279 29.5492 58.8183 26.2757C58.7088 23.0021 59.849 19.8096 62.0074 17.346C64.2644 14.7799 66.6905 12.3677 69.2694 10.1254L69.3596 10.045C74.4455 5.62929 82.1047 5.9729 86.8664 10.7346L97.779 21.6496L120.686 44.5566L154.584 10.6591C156.572 8.65841 159.244 7.48467 162.062 7.3739C164.88 7.26314 167.636 8.22357 169.775 10.0621L169.856 10.1303C173.38 13.1952 176.618 16.5745 179.53 20.2264C181.236 22.3788 182.09 25.0835 181.929 27.8249C181.769 30.5663 180.605 33.1529 178.66 35.0916L169.003 44.754L147.487 66.2696L140.725 73.0247L137.15 76.5948V127.819C137.142 132.217 135.403 136.434 132.307 139.558C129.212 142.683 125.01 144.461 120.613 144.509C120.264 144.522 119.914 144.524 119.563 144.524Z" fill="#915EFF"/>
<path d="M78.9879 141.246C82.6174 143.265 86.394 145.008 90.2854 146.459C90.8467 146.671 91.3458 147.021 91.737 147.476C92.1281 147.931 92.3989 148.477 92.5245 149.063C92.6501 149.65 92.6265 150.259 92.4559 150.834C92.2852 151.41 91.973 151.933 91.5478 152.356L70.8876 173.021C70.3483 173.558 69.6529 173.911 68.901 174.029C68.1491 174.148 67.379 174.025 66.7009 173.679C61.835 171.205 57.1458 168.397 52.6667 165.277C48.9356 162.673 45.3556 159.858 41.9443 156.847C35.2311 150.927 29.2123 144.263 24.0037 136.984C21.9128 134.06 19.9291 131.026 18.1015 127.909C10.909 115.657 6.0119 102.196 3.65053 88.1872C2.62837 82.1468 2.07678 76.0362 2.00073 69.9103V66.8033C2.05751 62.542 2.3414 58.2868 2.85122 54.0558C2.95614 53.1821 3.37765 52.3773 4.03599 51.7935C4.69434 51.2097 5.54384 50.8874 6.42374 50.8878H59.8703C60.3423 50.8876 60.8098 50.9805 61.2459 51.1612C61.682 51.3418 62.0783 51.6066 62.412 51.9405L89.5203 79.0488C90.0238 79.5514 90.3669 80.192 90.5061 80.8897C90.6453 81.5874 90.5743 82.3107 90.3021 82.968C90.0299 83.6253 89.5688 84.1871 88.9772 84.5822C88.3856 84.9773 87.69 85.1879 86.9786 85.1874H42.11C41.5585 85.1873 41.0144 85.314 40.5198 85.5579C40.0252 85.8017 39.5933 86.1561 39.2576 86.5936C38.9219 87.0311 38.6913 87.54 38.5838 88.0809C38.4762 88.6217 38.4946 89.1801 38.6374 89.7128C40.6571 97.2554 43.732 104.475 47.7709 111.158C55.3677 123.742 66.1312 134.115 78.9879 141.241V141.246Z" fill="#915EFF"/>
</svg>
