<svg id="Layer_1" data-name="Layer 1" xmlns="http://www.w3.org/2000/svg" viewBox="0 0 1454 1012"><defs><style>.cls-1{fill:#915eff;}</style></defs><title>DyCode - Light PurpleArtboard 22</title><path class="cls-1" d="M1433.22,373.41a713.07,713.07,0,0,1-9.93,118.69,699.37,699.37,0,0,1-86.49,237.77c-9.92,17-20.68,33.63-31.93,49.64a711,711,0,0,1-112.61,125.22,724.51,724.51,0,0,1-57.62,45.46,709.8,709.8,0,0,1-87.63,53.07,21.56,21.56,0,0,1-25-3.94l-125-125A21.51,21.51,0,0,1,904.48,839,503.5,503.5,0,0,0,1044,757.34a499.75,499.75,0,0,0,164.74-256.07h0A21.52,21.52,0,0,0,1188,474.18H924.63c-19.17,0-28.77-23.18-15.22-36.73L1071.66,275.2a21.55,21.55,0,0,1,15.22-6.3h319.83a21.51,21.51,0,0,1,21.38,18.89A717.66,717.66,0,0,1,1433.22,373.41Z"/><path class="cls-1" d="M724.39,829.31h-1c-54.83-.12-99-45.1-99-99.93V414.56L383.44,173.64a77.19,77.19,0,0,1-3.52-105.49,460.46,460.46,0,0,1,43.46-43.21l.55-.48C454.36-2,500.2.09,528.69,28.59L594,93.91,731.11,231,934,28.08c24.73-24.73,64.52-26.51,90.91-3.57l.48.42a461.16,461.16,0,0,1,57.9,60.48,66.93,66.93,0,0,1-5.21,88.92l-57.81,57.83L891.51,360.93,851,401.35l-21.39,21.4V729.33c0,54.81-44.16,99.2-99,99.94C728.58,829.29,726.48,829.31,724.39,829.31Z"/><path class="cls-1" d="M481.54,809.69a494.39,494.39,0,0,0,67.37,31.09,21.53,21.53,0,0,1,7.8,35.4L433.07,999.82a21.55,21.55,0,0,1-25,4A708.29,708.29,0,0,1,324,953.47,716.75,716.75,0,0,1,259.8,903,707.7,707.7,0,0,1,152.46,784.19c-12.51-17.44-24.37-35.67-35.32-54.32A699.35,699.35,0,0,1,30.66,492.1a709.63,709.63,0,0,1-9.88-109.41V364.15a718.44,718.44,0,0,1,5.1-76.36A21.52,21.52,0,0,1,47.26,268.9H367.12a21.55,21.55,0,0,1,15.22,6.3L544.59,437.45c13.55,13.55,3.95,36.73-15.22,36.73H260.84a21.52,21.52,0,0,0-20.79,27.09h0a496.24,496.24,0,0,0,54.67,128.37A503.1,503.1,0,0,0,481.54,809.69Z"/></svg>